<svg width="43" height="42" viewBox="0 0 43 42" fill="none" xmlns="http://www.w3.org/2000/svg"><g clip-path="url(#clip0_6104_24411)"><path d="M21.1729 0C12.4056 0 9.84146 0.00904805 9.34304 0.0503999C7.54385 0.199997 6.42429 0.483364 5.20456 1.09078C4.26459 1.55769 3.52326 2.09888 2.79163 2.85753C1.4592 4.24106 0.651653 5.94317 0.359317 7.96646C0.217197 8.94869 0.175845 9.14901 0.167448 14.1662C0.164225 15.8386 0.167448 18.0396 0.167448 20.9918C0.167448 29.7543 0.177131 32.3166 0.219134 32.8141C0.364492 34.5654 0.639049 35.6672 1.22048 36.8723C2.33166 39.1793 4.45386 40.9111 6.95402 41.5574C7.81971 41.7803 8.77583 41.9031 10.0033 41.9612C10.5234 41.9838 15.824 42 21.128 42C26.4319 42 31.7358 41.9935 32.2429 41.9677C33.6642 41.9008 34.4895 41.79 35.4021 41.5541C37.9184 40.9047 40.0018 39.1987 41.1356 36.8594C41.7057 35.6833 41.9948 34.5395 42.1256 32.8797C42.1541 32.5179 42.166 26.7482 42.166 20.9863C42.166 15.2234 42.1531 9.46436 42.1247 9.10248C41.9922 7.41588 41.7031 6.28179 41.1146 5.08307C40.6317 4.1018 40.0955 3.36899 39.317 2.61974C37.9277 1.29241 36.2287 0.48465 34.204 0.192568C33.223 0.0507176 33.0276 0.00871484 28.0079 0H21.1729Z" fill="url(#paint0_radial_6104_24411)"></path><path d="M21.1729 0C12.4056 0 9.84146 0.00904805 9.34304 0.0503999C7.54385 0.199997 6.42429 0.483364 5.20456 1.09078C4.26459 1.55769 3.52326 2.09888 2.79163 2.85753C1.4592 4.24106 0.651653 5.94317 0.359317 7.96646C0.217197 8.94869 0.175845 9.14901 0.167448 14.1662C0.164225 15.8386 0.167448 18.0396 0.167448 20.9918C0.167448 29.7543 0.177131 32.3166 0.219134 32.8141C0.364492 34.5654 0.639049 35.6672 1.22048 36.8723C2.33166 39.1793 4.45386 40.9111 6.95402 41.5574C7.81971 41.7803 8.77583 41.9031 10.0033 41.9612C10.5234 41.9838 15.824 42 21.128 42C26.4319 42 31.7358 41.9935 32.2429 41.9677C33.6642 41.9008 34.4895 41.79 35.4021 41.5541C37.9184 40.9047 40.0018 39.1987 41.1356 36.8594C41.7057 35.6833 41.9948 34.5395 42.1256 32.8797C42.1541 32.5179 42.166 26.7482 42.166 20.9863C42.166 15.2234 42.1531 9.46436 42.1247 9.10248C41.9922 7.41588 41.7031 6.28179 41.1146 5.08307C40.6317 4.1018 40.0955 3.36899 39.317 2.61974C37.9277 1.29241 36.2287 0.48465 34.204 0.192568C33.223 0.0507176 33.0276 0.00871484 28.0079 0H21.1729Z" fill="url(#paint1_radial_6104_24411)"></path><path d="M21.1729 0C12.4056 0 9.84146 0.00904805 9.34304 0.0503999C7.54385 0.199997 6.42429 0.483364 5.20456 1.09078C4.26459 1.55769 3.52326 2.09888 2.79163 2.85753C1.4592 4.24106 0.651653 5.94317 0.359317 7.96646C0.217197 8.94869 0.175845 9.14901 0.167448 14.1662C0.164225 15.8386 0.167448 18.0396 0.167448 20.9918C0.167448 29.7543 0.177131 32.3166 0.219134 32.8141C0.364492 34.5654 0.639049 35.6672 1.22048 36.8723C2.33166 39.1793 4.45386 40.9111 6.95402 41.5574C7.81971 41.7803 8.77583 41.9031 10.0033 41.9612C10.5234 41.9838 15.824 42 21.128 42C26.4319 42 31.7358 41.9935 32.2429 41.9677C33.6642 41.9008 34.4895 41.79 35.4021 41.5541C37.9184 40.9047 40.0018 39.1987 41.1356 36.8594C41.7057 35.6833 41.9948 34.5395 42.1256 32.8797C42.1541 32.5179 42.166 26.7482 42.166 20.9863C42.166 15.2234 42.1531 9.46436 42.1247 9.10248C41.9922 7.41588 41.7031 6.28179 41.1146 5.08307C40.6317 4.1018 40.0955 3.36899 39.317 2.61974C37.9277 1.29241 36.2287 0.48465 34.204 0.192568C33.223 0.0507176 33.0276 0.00871484 28.0079 0H21.1729Z" fill="url(#paint2_radial_6104_24411)"></path><path d="M21.1729 0C12.4056 0 9.84146 0.00904805 9.34304 0.0503999C7.54385 0.199997 6.42429 0.483364 5.20456 1.09078C4.26459 1.55769 3.52326 2.09888 2.79163 2.85753C1.4592 4.24106 0.651653 5.94317 0.359317 7.96646C0.217197 8.94869 0.175845 9.14901 0.167448 14.1662C0.164225 15.8386 0.167448 18.0396 0.167448 20.9918C0.167448 29.7543 0.177131 32.3166 0.219134 32.8141C0.364492 34.5654 0.639049 35.6672 1.22048 36.8723C2.33166 39.1793 4.45386 40.9111 6.95402 41.5574C7.81971 41.7803 8.77583 41.9031 10.0033 41.9612C10.5234 41.9838 15.824 42 21.128 42C26.4319 42 31.7358 41.9935 32.2429 41.9677C33.6642 41.9008 34.4895 41.79 35.4021 41.5541C37.9184 40.9047 40.0018 39.1987 41.1356 36.8594C41.7057 35.6833 41.9948 34.5395 42.1256 32.8797C42.1541 32.5179 42.166 26.7482 42.166 20.9863C42.166 15.2234 42.1531 9.46436 42.1247 9.10248C41.9922 7.41588 41.7031 6.28179 41.1146 5.08307C40.6317 4.1018 40.0955 3.36899 39.317 2.61974C37.9277 1.29241 36.2287 0.48465 34.204 0.192568C33.223 0.0507176 33.0276 0.00871484 28.0079 0H21.1729Z" fill="url(#paint3_radial_6104_24411)"></path><path d="M21.1758 5.39258C16.9348 5.39258 16.4025 5.4111 14.7368 5.48685C13.0744 5.56292 11.9396 5.82592 10.9467 6.21182C9.91966 6.61037 9.04842 7.14351 8.18044 8.01117C7.31182 8.87853 6.77826 9.74911 6.37811 10.7751C5.99095 11.7676 5.72743 12.9018 5.65262 14.5624C5.57812 16.2268 5.55859 16.759 5.55859 20.9969C5.55859 25.2348 5.57747 25.765 5.65293 27.4294C5.7294 29.0907 5.99259 30.2246 6.37842 31.2167C6.77761 32.2431 7.31115 33.1136 8.17946 33.981C9.04713 34.849 9.91836 35.3834 10.9448 35.782C11.9383 36.1679 13.0734 36.4309 14.7355 36.507C16.4012 36.5827 16.9332 36.6012 21.1739 36.6012C25.4152 36.6012 25.9458 36.5827 27.6115 36.5069C29.274 36.4309 30.41 36.1679 31.4036 35.782C32.4303 35.3834 33.3003 34.849 34.1679 33.981C35.0366 33.1136 35.5701 32.2431 35.9703 31.2171C36.3541 30.2246 36.6177 29.0903 36.6957 27.4298C36.7706 25.7653 36.7901 25.2348 36.7901 20.9969C36.7901 16.759 36.7706 16.2272 36.6957 14.5627C36.6177 12.9015 36.3541 11.7676 35.9703 10.7754C35.5701 9.74911 35.0366 8.87851 34.1679 8.01117C33.2993 7.14318 32.4306 6.61004 31.4026 6.2118C30.4071 5.82592 29.2717 5.56292 27.6092 5.48685C25.9435 5.4111 25.4132 5.39258 21.1709 5.39258H21.1758ZM19.7749 8.20461C20.1907 8.20396 20.6546 8.20461 21.1758 8.20461C25.3453 8.20461 25.8394 8.21957 27.4859 8.29433C29.0085 8.36391 29.8348 8.61811 30.3853 8.8317C31.114 9.11453 31.6336 9.45263 32.1798 9.99877C32.7264 10.5449 33.0647 11.0651 33.3484 11.7933C33.5622 12.3427 33.8169 13.1684 33.8862 14.6898C33.961 16.3348 33.9773 16.8289 33.9773 20.9933C33.9773 25.1577 33.961 25.6519 33.8862 27.2968C33.8166 28.8182 33.5622 29.644 33.3484 30.1934C33.0654 30.9216 32.7264 31.4401 32.1798 31.9859C31.6333 32.5321 31.1143 32.8702 30.3853 33.153C29.8355 33.3675 29.0085 33.6211 27.4859 33.6907C25.8398 33.7655 25.3453 33.7817 21.1758 33.7817C17.006 33.7817 16.5119 33.7655 14.8657 33.6907C13.3431 33.6205 12.5168 33.3662 11.966 33.1527C11.2373 32.8698 10.7167 32.5317 10.1702 31.9856C9.62361 31.4394 9.28527 30.9206 9.00157 30.1921C8.78783 29.6427 8.5331 28.8169 8.46381 27.2955C8.38898 25.6506 8.37401 25.1564 8.37401 20.9894C8.37401 16.8224 8.38898 16.3309 8.46381 14.6859C8.53343 13.1645 8.78783 12.3388 9.00157 11.7887C9.28461 11.0605 9.62361 10.5404 10.1702 9.99423C10.7167 9.44807 11.2373 9.10999 11.966 8.82651C12.5165 8.61194 13.3431 8.35838 14.8657 8.28848C16.3062 8.22346 16.8645 8.20396 19.7749 8.20069L19.7749 8.20461ZM29.5115 10.7956C28.4769 10.7956 27.6375 11.6333 27.6375 12.6674C27.6375 13.7012 28.4769 14.54 29.5115 14.54C30.546 14.54 31.3854 13.7012 31.3854 12.6674C31.3854 11.6337 30.546 10.7949 29.5114 10.7949L29.5115 10.7956ZM21.1758 12.9834C16.7471 12.9834 13.1564 16.5714 13.1564 20.9969C13.1564 25.4223 16.7471 29.0087 21.1758 29.0087C25.6045 29.0087 29.1939 25.4223 29.1939 20.9969C29.1939 16.5714 25.6042 12.9834 21.1755 12.9834H21.1758ZM21.1758 15.7955C24.0504 15.7955 26.3811 18.1241 26.3811 20.9969C26.3811 23.8694 24.0504 26.1983 21.1758 26.1983C18.3009 26.1983 15.9705 23.8694 15.9705 20.9969C15.9705 18.1241 18.3009 15.7955 21.1758 15.7955Z" fill="white"></path></g><defs><radialGradient id="paint0_radial_6104_24411" cx="0" cy="0" r="1" gradientUnits="userSpaceOnUse" gradientTransform="translate(40.8098 19.6859) rotate(164.25) scale(26.8356 19.3338)"><stop stop-color="#FF005F"></stop><stop offset="1" stop-color="#FC01D8"></stop></radialGradient><radialGradient id="paint1_radial_6104_24411" cx="0" cy="0" r="1" gradientUnits="userSpaceOnUse" gradientTransform="translate(11.3219 45.2349) rotate(-90) scale(33.5252 35.5695)"><stop stop-color="#FFCC00"></stop><stop offset="0.1242" stop-color="#FFCC00"></stop><stop offset="0.5672" stop-color="#FE4A05"></stop><stop offset="0.6942" stop-color="#FF0F3F"></stop><stop offset="1" stop-color="#FE0657" stop-opacity="0"></stop></radialGradient><radialGradient id="paint2_radial_6104_24411" cx="0" cy="0" r="1" gradientUnits="userSpaceOnUse" gradientTransform="translate(22.2273 41.4077) rotate(-59.8703) scale(13.863 18.048)"><stop stop-color="#FFCC00"></stop><stop offset="1" stop-color="#FFCC00" stop-opacity="0"></stop></radialGradient><radialGradient id="paint3_radial_6104_24411" cx="0" cy="0" r="1" gradientUnits="userSpaceOnUse" gradientTransform="translate(5.86451 1.71023) rotate(164.274) scale(26.538 9.04146)"><stop stop-color="#780CFF"></stop><stop offset="1" stop-color="#820BFF" stop-opacity="0"></stop></radialGradient><clipPath id="clip0_6104_24411"><rect width="42" height="42" fill="white" transform="translate(0.166016)"></rect></clipPath></defs></svg>
