<svg xmlns="http://www.w3.org/2000/svg" width="24" height="24" viewBox="0 0 24 24" fill="none" class="flex-sh_0 h_1.5rem w_1.5rem c_border"><mask id="path-1-inside-1_17542_3665" fill="white"><path fill-rule="evenodd" clip-rule="evenodd" d="M3.2001 5.59995C3.2001 5.15813 3.55827 4.79995 4.0001 4.79995H20.0001C20.4419 4.79995 20.8001 5.15813 20.8001 5.59995V15.2C20.8001 15.6418 20.4419 16 20.0001 16H4.0001C3.55827 16 3.2001 15.6418 3.2001 15.2V5.59995ZM3.2001 17.4633C2.26794 17.1339 1.6001 16.2449 1.6001 15.2V5.59995C1.6001 4.27446 2.67461 3.19995 4.0001 3.19995H20.0001C21.3255 3.19995 22.4001 4.27446 22.4001 5.59995V15.2C22.4001 16.2449 21.7323 17.1339 20.8001 17.4633V18.4C20.8001 19.7254 19.7255 20.8 18.4001 20.8H5.6001C4.27461 20.8 3.2001 19.7254 3.2001 18.4V17.4633ZM19.2001 17.6V18.4C19.2001 18.8417 18.8419 19.2 18.4001 19.2H5.6001C5.15827 19.2 4.8001 18.8417 4.8001 18.4V17.6H19.2001ZM8.0001 10.4C8.0001 9.95813 8.35827 9.59995 8.8001 9.59995H11.2001V7.19995C11.2001 6.75813 11.5583 6.39995 12.0001 6.39995C12.4419 6.39995 12.8001 6.75813 12.8001 7.19995V9.59995H15.2001C15.6419 9.59995 16.0001 9.95813 16.0001 10.4C16.0001 10.8418 15.6419 11.2 15.2001 11.2H12.8001V13.6C12.8001 14.0418 12.4419 14.4 12.0001 14.4C11.5583 14.4 11.2001 14.0418 11.2001 13.6V11.2H8.8001C8.35827 11.2 8.0001 10.8418 8.0001 10.4Z"></path></mask><path d="M3.2001 17.4633H5.2001V16.0489L3.86653 15.5776L3.2001 17.4633ZM20.8001 17.4633L20.1337 15.5776L18.8001 16.0489V17.4633H20.8001ZM19.2001 17.6H21.2001V15.6H19.2001V17.6ZM4.8001 17.6V15.6H2.8001V17.6H4.8001ZM11.2001 9.59995V11.6H13.2001V9.59995H11.2001ZM12.8001 9.59995H10.8001V11.6H12.8001V9.59995ZM12.8001 11.2V9.19995H10.8001V11.2H12.8001ZM11.2001 11.2H13.2001V9.19995H11.2001V11.2ZM3.2001 5.59995H5.2001C5.2001 6.2627 4.66284 6.79995 4.0001 6.79995V4.79995V2.79995C2.4537 2.79995 1.2001 4.05356 1.2001 5.59995H3.2001ZM4.0001 4.79995V6.79995H20.0001V4.79995V2.79995H4.0001V4.79995ZM20.0001 4.79995V6.79995C19.3374 6.79995 18.8001 6.2628 18.8001 5.59995H20.8001H22.8001C22.8001 4.05345 21.5463 2.79995 20.0001 2.79995V4.79995ZM20.8001 5.59995H18.8001V15.2H20.8001H22.8001V5.59995H20.8001ZM20.8001 15.2H18.8001C18.8001 14.5371 19.3374 14 20.0001 14V16V18C21.5463 18 22.8001 16.7464 22.8001 15.2H20.8001ZM20.0001 16V14H4.0001V16V18H20.0001V16ZM4.0001 16V14C4.66284 14 5.2001 14.5372 5.2001 15.2H3.2001H1.2001C1.2001 16.7463 2.4537 18 4.0001 18V16ZM3.2001 15.2H5.2001V5.59995H3.2001H1.2001V15.2H3.2001ZM3.2001 17.4633L3.86653 15.5776C3.7085 15.5218 3.6001 15.371 3.6001 15.2H1.6001H-0.399902C-0.399902 17.1189 0.827374 18.746 2.53366 19.349L3.2001 17.4633ZM1.6001 15.2H3.6001V5.59995H1.6001H-0.399902V15.2H1.6001ZM1.6001 5.59995H3.6001C3.6001 5.37903 3.77918 5.19995 4.0001 5.19995V3.19995V1.19995C1.57004 1.19995 -0.399902 3.16989 -0.399902 5.59995H1.6001ZM4.0001 3.19995V5.19995H20.0001V3.19995V1.19995H4.0001V3.19995ZM20.0001 3.19995V5.19995C20.221 5.19995 20.4001 5.37906 20.4001 5.59995H22.4001H24.4001C24.4001 3.16987 22.4301 1.19995 20.0001 1.19995V3.19995ZM22.4001 5.59995H20.4001V15.2H22.4001H24.4001V5.59995H22.4001ZM22.4001 15.2H20.4001C20.4001 15.371 20.2917 15.5218 20.1337 15.5776L20.8001 17.4633L21.4665 19.349C23.1728 18.746 24.4001 17.1189 24.4001 15.2H22.4001ZM20.8001 17.4633H18.8001V18.4H20.8001H22.8001V17.4633H20.8001ZM20.8001 18.4H18.8001C18.8001 18.6208 18.621 18.8 18.4001 18.8V20.8V22.8C20.8301 22.8 22.8001 20.83 22.8001 18.4H20.8001ZM18.4001 20.8V18.8H5.6001V20.8V22.8H18.4001V20.8ZM5.6001 20.8V18.8C5.37921 18.8 5.2001 18.6208 5.2001 18.4H3.2001H1.2001C1.2001 20.8299 3.17001 22.8 5.6001 22.8V20.8ZM3.2001 18.4H5.2001V17.4633H3.2001H1.2001V18.4H3.2001ZM19.2001 17.6H17.2001V18.4H19.2001H21.2001V17.6H19.2001ZM19.2001 18.4H17.2001C17.2001 17.7371 17.7373 17.2 18.4001 17.2V19.2V21.2C19.9464 21.2 21.2001 19.9463 21.2001 18.4H19.2001ZM18.4001 19.2V17.2H5.6001V19.2V21.2H18.4001V19.2ZM5.6001 19.2V17.2C6.26295 17.2 6.8001 17.7372 6.8001 18.4H4.8001H2.8001C2.8001 19.9462 4.0536 21.2 5.6001 21.2V19.2ZM4.8001 18.4H6.8001V17.6H4.8001H2.8001V18.4H4.8001ZM4.8001 17.6V19.6H19.2001V17.6V15.6H4.8001V17.6ZM8.0001 10.4H10.0001C10.0001 11.0627 9.46284 11.6 8.8001 11.6V9.59995V7.59995C7.2537 7.59995 6.0001 8.85356 6.0001 10.4H8.0001ZM8.8001 9.59995V11.6H11.2001V9.59995V7.59995H8.8001V9.59995ZM11.2001 9.59995H13.2001V7.19995H11.2001H9.2001V9.59995H11.2001ZM11.2001 7.19995H13.2001C13.2001 7.8627 12.6628 8.39995 12.0001 8.39995V6.39995V4.39995C10.4537 4.39995 9.2001 5.65356 9.2001 7.19995H11.2001ZM12.0001 6.39995V8.39995C11.3374 8.39995 10.8001 7.8627 10.8001 7.19995H12.8001H14.8001C14.8001 5.65356 13.5465 4.39995 12.0001 4.39995V6.39995ZM12.8001 7.19995H10.8001V9.59995H12.8001H14.8001V7.19995H12.8001ZM12.8001 9.59995V11.6H15.2001V9.59995V7.59995H12.8001V9.59995ZM15.2001 9.59995V11.6C14.5374 11.6 14.0001 11.0627 14.0001 10.4H16.0001H18.0001C18.0001 8.85356 16.7465 7.59995 15.2001 7.59995V9.59995ZM16.0001 10.4H14.0001C14.0001 9.73721 14.5374 9.19995 15.2001 9.19995V11.2V13.2C16.7465 13.2 18.0001 11.9463 18.0001 10.4H16.0001ZM15.2001 11.2V9.19995H12.8001V11.2V13.2H15.2001V11.2ZM12.8001 11.2H10.8001V13.6H12.8001H14.8001V11.2H12.8001ZM12.8001 13.6H10.8001C10.8001 12.9372 11.3374 12.4 12.0001 12.4V14.4V16.4C13.5465 16.4 14.8001 15.1463 14.8001 13.6H12.8001ZM12.0001 14.4V12.4C12.6628 12.4 13.2001 12.9372 13.2001 13.6H11.2001H9.2001C9.2001 15.1463 10.4537 16.4 12.0001 16.4V14.4ZM11.2001 13.6H13.2001V11.2H11.2001H9.2001V13.6H11.2001ZM11.2001 11.2V9.19995H8.8001V11.2V13.2H11.2001V11.2ZM8.8001 11.2V9.19995C9.46284 9.19995 10.0001 9.73721 10.0001 10.4H8.0001H6.0001C6.0001 11.9463 7.2537 13.2 8.8001 13.2V11.2Z" fill="#FFFFFF" mask="url(#path-1-inside-1_17542_3665)"></path></svg>