<?xml version="1.0"?>
<svg xmlns="http://www.w3.org/2000/svg"
     xmlns:xlink="http://www.w3.org/1999/xlink"
     viewBox="0 0 32 32"
     width="128"
     height="128">

  <!-- Красный фон -->
  <circle cx="16" cy="16" r="16" fill="#e04c40"/>

  <!-- Белая буква G -->
  <path fill="white" d="M16.173,24.596
    c-4.749,0-8.596-3.847-8.596-8.596s3.847-8.596,8.596-8.596
    c2.321,0,4.261,0.855,5.748,2.24l-2.423,2.423v-0.005
    c-0.902-0.86-2.047-1.3-3.325-1.3
    c-2.836,0-5.141,2.396-5.141,5.232s2.305,5.238,5.141,5.238
    c2.573,0,4.325-1.472,4.685-3.492h-4.685v-3.353h8.085
    c0.107,0.574,0.166,1.177,0.166,1.805
    C24.424,21.104,21.136,24.596,16.173,24.596z"/>
</svg>
