<svg width="43" height="42" viewBox="0 0 43 42" fill="none" xmlns="http://www.w3.org/2000/svg"><path fill-rule="evenodd" clip-rule="evenodd" d="M32.4922 0C38.5625 0 42.5 3.9375 42.5 10.0078V31.9922C42.5 38.0625 38.5625 42 32.4922 42H10.5078C4.4375 42 0.5 38.0625 0.5 31.9922V10.0078C0.5 3.9375 4.4375 0 10.5078 0H32.4922Z" fill="black"></path><path d="M33.436 15.0927V19.4182C33.2035 19.4182 32.9244 19.4647 32.6454 19.4647C30.5523 19.4647 28.5989 18.674 27.1105 17.4182V26.6275C27.1105 28.488 26.5058 30.2554 25.4361 31.6507C23.9477 33.6507 21.5291 34.9996 18.7849 34.9996C15.8082 34.9996 13.2036 33.4182 11.7617 31.0926C13.2501 32.4879 15.2501 33.3717 17.4361 33.3717C20.1338 33.3717 22.5524 32.0693 24.0407 30.0228C25.064 28.6275 25.7151 26.9066 25.7151 24.9996V15.7438C27.2035 17.0461 29.1105 17.7903 31.25 17.7903C31.5291 17.7903 31.7616 17.7903 32.0407 17.7438V14.9531C32.4593 15.0461 32.8314 15.0927 33.25 15.0927H33.436Z" fill="#FF004F"></path><path d="M19.9485 18.3014V23.0921C19.6229 22.999 19.2508 22.9525 18.9252 22.9525C16.8787 22.9525 15.2043 24.6735 15.2043 26.7665C15.2043 27.2316 15.2973 27.6502 15.4369 28.0688C14.5066 27.3711 13.8555 26.2548 13.8555 24.999C13.8555 22.906 15.5299 21.1851 17.5764 21.1851C17.9485 21.1851 18.2741 21.2316 18.5996 21.3246V18.2549C18.6927 18.2549 18.7857 18.2549 18.8787 18.2549C19.2508 18.2549 19.6229 18.2549 19.9485 18.3014Z" fill="#FF004F"></path><path d="M27.8085 11.6507C26.9712 10.9065 26.3666 9.88324 26.041 8.81348H27.1573C27.1573 9.04603 27.1573 9.23208 27.1573 9.46464C27.2503 10.2088 27.4829 10.953 27.8085 11.6507Z" fill="#FF004F"></path><path d="M32.0875 14.9995V17.7902C31.855 17.8367 31.5759 17.8367 31.2968 17.8367C29.2038 17.8367 27.2503 17.046 25.762 15.7902V24.9995C25.762 26.8599 25.1573 28.6273 24.0876 30.0227C22.5527 32.0692 20.1806 33.3715 17.4829 33.3715C15.2969 33.3715 13.2969 32.4878 11.8085 31.0925C11.0178 29.7901 10.5527 28.3018 10.5527 26.6739C10.5527 22.1623 14.1341 18.4879 18.5992 18.3483V21.4181C18.2736 21.3251 17.9015 21.2785 17.576 21.2785C15.5295 21.2785 13.855 22.9995 13.855 25.0925C13.855 26.3483 14.4597 27.5111 15.4364 28.1622C15.9481 29.6041 17.3434 30.6738 18.9248 30.6738C20.9713 30.6738 22.6457 28.9529 22.6457 26.8599V8.81348H26.041C26.3666 9.92975 26.9713 10.9065 27.8085 11.6507C28.6457 13.3251 30.2271 14.5809 32.0875 14.9995Z" fill="white"></path><path d="M18.5988 16.6741V18.2555C14.1337 18.395 10.5523 22.0694 10.5523 26.581C10.5523 28.2089 11.0174 29.6973 11.8081 30.9996C10.2267 29.4647 9.25 27.3252 9.25 24.9066C9.25 20.302 12.9709 16.5811 17.529 16.5811C17.9011 16.5811 18.2732 16.6276 18.5988 16.6741Z" fill="#00F7EF"></path><path d="M26.0402 8.81395H22.6448V26.7674C22.6448 28.8604 20.9704 30.5813 18.9239 30.5813C17.296 30.5813 15.9472 29.5581 15.4355 28.0697C16.0402 28.4883 16.7844 28.7674 17.5751 28.7674C19.6216 28.7674 21.296 27.0929 21.296 24.9999V7H25.8076V7.09302C25.8076 7.27907 25.8076 7.46511 25.8541 7.65116C25.8541 8.02325 25.9471 8.44185 26.0402 8.81395Z" fill="#00F7EF"></path><path d="M32.0873 13.2793V14.9537C30.2268 14.5816 28.6454 13.3258 27.7617 11.6514C28.9245 12.7211 30.4129 13.3258 32.0873 13.2793Z" fill="#00F7EF"></path></svg>