<svg width="45" height="44" viewBox="0 0 45 44" fill="none" xmlns="http://www.w3.org/2000/svg"><path d="M33.8242 0.5C36.9695 0.500004 39.6063 1.52233 41.458 3.37402C43.3097 5.22572 44.332 7.8625 44.332 11.0078V32.9922C44.332 36.1375 43.3097 38.7743 41.458 40.626C39.6063 42.4777 36.9695 43.5 33.8242 43.5H11.8398C8.69453 43.5 6.05775 42.4777 4.20605 40.626C2.35436 38.7743 1.33204 36.1375 1.33203 32.9922V11.0078C1.33203 7.8625 2.35436 5.22572 4.20605 3.37402C6.05775 1.52233 8.69453 0.500004 11.8398 0.5H33.8242Z" fill="white" stroke="#D7DADC"></path><path fill-rule="evenodd" clip-rule="evenodd" d="M36.2245 10.7161C37.6439 11.111 38.7633 12.2723 39.142 13.7471C39.832 16.4219 39.832 22 39.832 22C39.832 22 39.832 27.58 39.142 30.2529C38.7633 31.7277 37.6439 32.889 36.2245 33.2839C33.652 34 23.332 34 23.332 34C23.332 34 13.0139 34 10.4395 33.2839C9.02016 32.889 7.90078 31.7277 7.52203 30.2529C6.83203 27.5781 6.83203 22 6.83203 22C6.83203 22 6.83203 16.4219 7.52203 13.7471C7.90078 12.2723 9.02016 11.111 10.4395 10.7161C13.012 10 23.332 10 23.332 10C23.332 10 33.652 10 36.2245 10.7161ZM28.582 22L19.957 27.0652V16.9348L28.582 22Z" fill="#FF0000"></path></svg>